<svg xmlns="http://www.w3.org/2000/svg" xmlns:xlink="http://www.w3.org/1999/xlink" viewBox="0 0 640 629.45"><defs><style>.cls-1{fill:#fbfbfb;}.cls-2,.cls-3,.cls-4{fill:none;stroke-miterlimit:10;stroke-width:2px;}.cls-2{stroke:#f5c301;}.cls-3{stroke:#e62768;}.cls-4{stroke:#0083c0;}.cls-5,.cls-6{fill:#fff;}.cls-6{opacity:0.7;}.cls-7{fill:url(#linear-gradient);}.cls-8{fill:url(#linear-gradient-2);}.cls-9{fill:url(#linear-gradient-3);}.cls-10{fill:url(#linear-gradient-4);}.cls-11{fill:url(#linear-gradient-5);}.cls-12{fill:url(#linear-gradient-6);}.cls-13{fill:url(#linear-gradient-7);}.cls-14{fill:url(#linear-gradient-8);}.cls-15{fill:url(#linear-gradient-9);}.cls-16{fill:url(#linear-gradient-10);}.cls-17{fill:url(#linear-gradient-11);}.cls-18{fill:url(#linear-gradient-12);}.cls-19{fill:url(#linear-gradient-13);}.cls-20{fill:url(#linear-gradient-14);}.cls-21{fill:url(#linear-gradient-15);}.cls-22{fill:url(#linear-gradient-16);}.cls-23{fill:url(#linear-gradient-17);}.cls-24{fill:url(#linear-gradient-18);}.cls-25{fill:url(#linear-gradient-19);}.cls-26{fill:url(#linear-gradient-20);}.cls-27{fill:#e62768;}.cls-27,.cls-28,.cls-29,.cls-30,.cls-31,.cls-32,.cls-33,.cls-34,.cls-35,.cls-36,.cls-37,.cls-38,.cls-39,.cls-40,.cls-41,.cls-42,.cls-43{fill-rule:evenodd;}.cls-28{fill:#ffd000;}.cls-29,.cls-44{fill:#fbc800;}.cls-30{fill:#e4124b;}.cls-31{fill:#c43a46;}.cls-32{fill:#e85384;}.cls-33{fill:#eb83ab;}.cls-34{fill:#e8b9ce;}.cls-35{fill:#ffde43;}.cls-36{fill:#fac700;}.cls-37{fill:#79c9e1;}.cls-38{fill:#0083c0;}.cls-39{fill:#00a4dc;}.cls-40{fill:#c3e1e5;}.cls-41{fill:#5fc6e5;}.cls-42{fill:#006a9e;}.cls-43{fill:#000200;}</style><linearGradient id="linear-gradient" x1="336.39" y1="59.12" x2="393.65" y2="107.31" gradientUnits="userSpaceOnUse"><stop offset="0" stop-color="#fdc307"></stop><stop offset="1" stop-color="#e62768"></stop></linearGradient><linearGradient id="linear-gradient-2" x1="342.02" y1="52.43" x2="399.28" y2="100.62" xlink:href="#linear-gradient"></linearGradient><linearGradient id="linear-gradient-3" x1="504.88" y1="375.67" x2="587.08" y2="435.76" xlink:href="#linear-gradient"></linearGradient><linearGradient id="linear-gradient-4" x1="487.28" y1="399.74" x2="569.48" y2="459.83" xlink:href="#linear-gradient"></linearGradient><linearGradient id="linear-gradient-5" x1="499.93" y1="382.43" x2="582.13" y2="442.53" xlink:href="#linear-gradient"></linearGradient><linearGradient id="linear-gradient-6" x1="502.37" y1="379.09" x2="584.58" y2="439.18" xlink:href="#linear-gradient"></linearGradient><linearGradient id="linear-gradient-7" x1="488.46" y1="398.12" x2="570.66" y2="458.22" xlink:href="#linear-gradient"></linearGradient><linearGradient id="linear-gradient-8" x1="490.65" y1="395.12" x2="572.86" y2="455.22" xlink:href="#linear-gradient"></linearGradient><linearGradient id="linear-gradient-9" x1="518.78" y1="356.64" x2="600.99" y2="416.74" xlink:href="#linear-gradient"></linearGradient><linearGradient id="linear-gradient-10" x1="515.33" y1="361.36" x2="597.54" y2="421.46" xlink:href="#linear-gradient"></linearGradient><linearGradient id="linear-gradient-11" x1="518.64" y1="356.84" x2="600.84" y2="416.94" xlink:href="#linear-gradient"></linearGradient><linearGradient id="linear-gradient-12" x1="487.48" y1="399.47" x2="569.68" y2="459.56" xlink:href="#linear-gradient"></linearGradient><linearGradient id="linear-gradient-13" x1="499.92" y1="382.44" x2="582.13" y2="442.54" xlink:href="#linear-gradient"></linearGradient><linearGradient id="linear-gradient-14" x1="88.04" y1="392.53" x2="177.61" y2="450.36" xlink:href="#linear-gradient"></linearGradient><linearGradient id="linear-gradient-15" x1="81.48" y1="402.68" x2="171.06" y2="460.51" xlink:href="#linear-gradient"></linearGradient><linearGradient id="linear-gradient-16" x1="92.85" y1="385.08" x2="182.42" y2="442.91" xlink:href="#linear-gradient"></linearGradient><linearGradient id="linear-gradient-17" x1="96.97" y1="378.7" x2="186.54" y2="436.53" xlink:href="#linear-gradient"></linearGradient><linearGradient id="linear-gradient-18" x1="86.98" y1="394.16" x2="176.56" y2="451.99" xlink:href="#linear-gradient"></linearGradient><linearGradient id="linear-gradient-19" x1="85.35" y1="396.69" x2="174.93" y2="454.51" xlink:href="#linear-gradient"></linearGradient><linearGradient id="linear-gradient-20" x1="88.69" y1="391.52" x2="178.26" y2="449.35" xlink:href="#linear-gradient"></linearGradient></defs><g id="Layer_2" data-name="Layer 2"><g id="Layer_1-2" data-name="Layer 1"><path class="cls-1" d="M223.86,376c21.46-74.66,68.21-126.19,140.88-154,2.06-.79,4.39-.91,6.59-1.33,17.74,18.92,33.26,39.38,43.44,63.45q30.9,73.09,3.81,147.76c-24.22,4.23-48.54,6.3-73.07,3C298.57,428.48,257.69,409.53,223.86,376Z"></path><path class="cls-2" d="M345.51,434.88c-46.94-6.4-87.82-25.35-121.65-58.86-14.36-8.46-23.78-21.76-32.62-35.12-27.32-41.29-39.11-87.09-36.59-136.42.6-11.79,3.15-23.47,4.81-35.2a21.58,21.58,0,0,0-4.42.27C70.71,192.31,5.51,272.36,1.32,359.67-2.35,436,25.69,498.56,86.76,544.87c45.05,34.17,96.54,46.83,152.81,40.7,16.43-1.79,31.94-7.14,47.94-10.56,11.31-6.55,23.8-10.71,35-17.59C366,530.69,397,493.8,414.22,445.6c1.61-4.51,2.91-9.12,4.36-13.68C394.36,436.15,370,438.22,345.51,434.88Z"></path><path class="cls-3" d="M638.2,405.83c-4.43-51.89-26.3-96.45-60.69-135.13-2-2.23-4.67-4-4.79-7.44a9.21,9.21,0,0,1-6.87-2.39c-20.14-18-43.72-29.88-69.06-38.83-28-9.91-57-12.25-86.2-10.18-13.27.94-26.83,3-39.26,8.84,17.74,18.93,33.26,39.39,43.44,63.46q30.9,73.09,3.81,147.76c-1.45,4.56-2.75,9.17-4.36,13.68C397,493.8,366,530.69,322.5,557.42c-11.19,6.88-23.68,11-35,17.59a11.78,11.78,0,0,0,1.41,1.77c89.95,77,223.85,66.86,301-23C626.36,511.25,643,461.69,638.2,405.83Z"></path><path class="cls-4" d="M552.24,111.17C510.27,33.17,421.55-11.22,335,4,263.26,16.53,212.52,58.15,178.55,121.54c-8.16,15.21-13.07,31.69-19.09,47.74-1.66,11.73-4.21,23.41-4.81,35.2-2.52,49.33,9.27,95.13,36.59,136.42,8.84,13.36,18.26,26.66,32.62,35.12,21.46-74.66,68.21-126.19,140.88-154,2.06-.79,4.39-.91,6.59-1.34,12.43-5.84,26-7.9,39.26-8.84,29.22-2.07,58.16.27,86.2,10.18,25.34,9,48.92,20.79,69.06,38.83a9.21,9.21,0,0,0,6.87,2.39q.87-4.83,1.73-9.67C583.3,203.59,576.38,156.05,552.24,111.17Z"></path><path class="cls-5" d="M305,148.34v-15h-5.29v-2.76h13.62v2.76H308v15Z"></path><path class="cls-5" d="M319.09,148.69a6.56,6.56,0,0,1-3.3-.8,5.55,5.55,0,0,1-2.23-2.25,6.9,6.9,0,0,1-.8-3.41v-.3a7.08,7.08,0,0,1,.78-3.42,5.6,5.6,0,0,1,2.21-2.24,6.53,6.53,0,0,1,3.26-.8,6.28,6.28,0,0,1,3.2.8,5.45,5.45,0,0,1,2.12,2.24,7.07,7.07,0,0,1,.76,3.37v1H315.7a3.16,3.16,0,0,0,1,2.35,3.53,3.53,0,0,0,2.44.89,3.08,3.08,0,0,0,2.1-.62,4.41,4.41,0,0,0,1-1.41l2.4,1.24a7.36,7.36,0,0,1-1,1.46,5.67,5.67,0,0,1-1.79,1.32A6.43,6.43,0,0,1,319.09,148.69Zm-3.37-8h6.41a2.8,2.8,0,0,0-.95-2,3.28,3.28,0,0,0-5.46,2Z"></path><path class="cls-5" d="M333.93,148.69a7,7,0,0,1-3.29-.76,5.65,5.65,0,0,1-2.32-2.2,6.78,6.78,0,0,1-.85-3.47v-.36a6.81,6.81,0,0,1,.85-3.47,5.71,5.71,0,0,1,2.32-2.2,7,7,0,0,1,3.29-.76,6.91,6.91,0,0,1,3.08.63,5.5,5.5,0,0,1,2.07,1.74,5.86,5.86,0,0,1,1,2.47l-2.81.58a3.84,3.84,0,0,0-.48-1.43,2.89,2.89,0,0,0-1.08-1,3.54,3.54,0,0,0-1.71-.38,3.82,3.82,0,0,0-1.86.45,3.07,3.07,0,0,0-1.29,1.33,4.4,4.4,0,0,0-.47,2.12v.26a4.33,4.33,0,0,0,.47,2.11,3.13,3.13,0,0,0,1.29,1.33,3.72,3.72,0,0,0,1.86.46,3.17,3.17,0,0,0,2.34-.8,3.56,3.56,0,0,0,1-2.06l2.82.65a6.76,6.76,0,0,1-1.09,2.41,5.6,5.6,0,0,1-2.07,1.74A6.77,6.77,0,0,1,333.93,148.69Z"></path><path class="cls-5" d="M343,148.34V130.61h2.92v6.86h.43a2.75,2.75,0,0,1,.66-.86,3.47,3.47,0,0,1,1.2-.71,5.38,5.38,0,0,1,1.89-.28,5,5,0,0,1,2.55.65,4.46,4.46,0,0,1,1.74,1.81,5.85,5.85,0,0,1,.62,2.76v7.5H352.1v-7.27a3.08,3.08,0,0,0-.75-2.27,2.86,2.86,0,0,0-2.12-.75,3.06,3.06,0,0,0-2.43,1,4.34,4.34,0,0,0-.88,2.92v6.34Z"></path><path class="cls-5" d="M358.58,148.34V135.82h2.86v1.75h.43a3.66,3.66,0,0,1,1.19-1.34,4.45,4.45,0,0,1,2.61-.63,5,5,0,0,1,2.56.65,4.65,4.65,0,0,1,1.74,1.83,5.85,5.85,0,0,1,.62,2.76v7.5h-2.92v-7.27a3.07,3.07,0,0,0-.74-2.27,2.87,2.87,0,0,0-2.12-.75,3.06,3.06,0,0,0-2.43,1,4.34,4.34,0,0,0-.89,2.92v6.34Z"></path><path class="cls-5" d="M380.09,148.69a7.23,7.23,0,0,1-3.36-.77,5.81,5.81,0,0,1-2.33-2.2,6.6,6.6,0,0,1-.85-3.44v-.4a6.66,6.66,0,0,1,.85-3.45,5.68,5.68,0,0,1,2.33-2.2,7.23,7.23,0,0,1,3.36-.76,7.12,7.12,0,0,1,3.34.76,5.71,5.71,0,0,1,2.32,2.2,6.76,6.76,0,0,1,.85,3.45v.4a6.7,6.7,0,0,1-.85,3.44,5.85,5.85,0,0,1-2.32,2.2A7.12,7.12,0,0,1,380.09,148.69Zm0-2.58a3.5,3.5,0,0,0,2.61-1,3.92,3.92,0,0,0,1-2.87V142a3.92,3.92,0,0,0-1-2.87,3.82,3.82,0,0,0-5.22,0,3.89,3.89,0,0,0-1,2.87v.26a3.89,3.89,0,0,0,1,2.87A3.47,3.47,0,0,0,380.09,146.11Z"></path><path class="cls-5" d="M389.69,148.34V130.61h2.91v17.73Z"></path><path class="cls-5" d="M402.23,148.69a7.23,7.23,0,0,1-3.36-.77,5.75,5.75,0,0,1-2.33-2.2,6.6,6.6,0,0,1-.85-3.44v-.4a6.66,6.66,0,0,1,.85-3.45,5.62,5.62,0,0,1,2.33-2.2,7.23,7.23,0,0,1,3.36-.76,7.12,7.12,0,0,1,3.34.76,5.71,5.71,0,0,1,2.32,2.2,6.76,6.76,0,0,1,.85,3.45v.4a6.7,6.7,0,0,1-.85,3.44,5.85,5.85,0,0,1-2.32,2.2A7.12,7.12,0,0,1,402.23,148.69Zm0-2.58a3.47,3.47,0,0,0,2.6-1,3.89,3.89,0,0,0,1-2.87V142a3.89,3.89,0,0,0-1-2.87,3.81,3.81,0,0,0-5.21,0,3.89,3.89,0,0,0-1,2.87v.26a3.89,3.89,0,0,0,1,2.87A3.47,3.47,0,0,0,402.23,146.11Z"></path><path class="cls-5" d="M411.22,142.13v-.38a6.87,6.87,0,0,1,.78-3.38,5.52,5.52,0,0,1,2.11-2.15,5.7,5.7,0,0,1,2.88-.75,4.81,4.81,0,0,1,2.7.63,4.52,4.52,0,0,1,1.36,1.37h.43v-1.65h2.83v14.9a2.64,2.64,0,0,1-.71,2,2.56,2.56,0,0,1-1.92.72h-8.41v-2.53h7.42a.66.66,0,0,0,.74-.76v-3.62H421a4.55,4.55,0,0,1-.76.87,3.88,3.88,0,0,1-1.27.75,5.58,5.58,0,0,1-2,.3,5.8,5.8,0,0,1-2.88-.74,5.55,5.55,0,0,1-2.11-2.16A6.84,6.84,0,0,1,411.22,142.13Zm6.58,3.73a3.6,3.6,0,0,0,2.61-1,3.66,3.66,0,0,0,1-2.79v-.26a3.74,3.74,0,0,0-1-2.81,3.64,3.64,0,0,0-2.63-1,3.51,3.51,0,0,0-3.67,3.8v.26a3.54,3.54,0,0,0,3.67,3.8Z"></path><path class="cls-5" d="M429.41,153.4v-2.53h6.91c.47,0,.71-.25.71-.76v-3.49h-.43a2.89,2.89,0,0,1-.66.89,3.51,3.51,0,0,1-1.22.74,5.47,5.47,0,0,1-1.92.29,5,5,0,0,1-2.56-.65,4.32,4.32,0,0,1-1.72-1.82,5.84,5.84,0,0,1-.61-2.75v-7.5h2.89v7.27a3,3,0,0,0,.75,2.26,2.86,2.86,0,0,0,2.11.73,3.1,3.1,0,0,0,2.45-1,4.26,4.26,0,0,0,.89-2.91v-6.34h2.89v14.9a2.64,2.64,0,0,1-.71,2,2.56,2.56,0,0,1-1.92.72Z"></path><path class="cls-6" d="M301.79,171.4a4.4,4.4,0,0,1-1.77-.34,2.88,2.88,0,0,1-1.25-1,2.61,2.61,0,0,1-.46-1.58,2.51,2.51,0,0,1,.46-1.56A2.77,2.77,0,0,1,300,166a4.82,4.82,0,0,1,1.78-.32h3.14V165a2.07,2.07,0,0,0-.58-1.56,2.36,2.36,0,0,0-1.72-.57,2.6,2.6,0,0,0-1.75.54,2.71,2.71,0,0,0-.85,1.46l-1.41-.46a4.43,4.43,0,0,1,.72-1.42,3.6,3.6,0,0,1,1.32-1,4.68,4.68,0,0,1,2-.39,3.91,3.91,0,0,1,2.77.92,3.38,3.38,0,0,1,1,2.59v4.2c0,.38.18.57.53.57h.86v1.28H306.5a1.4,1.4,0,0,1-1-.36,1.21,1.21,0,0,1-.38-.94v-.09h-.23a4.28,4.28,0,0,1-.56.75,2.56,2.56,0,0,1-1,.64A3.9,3.9,0,0,1,301.79,171.4Zm.17-1.29a3,3,0,0,0,2.15-.79,2.9,2.9,0,0,0,.83-2.21v-.21h-3.08a2.6,2.6,0,0,0-1.47.39,1.31,1.31,0,0,0-.58,1.17,1.41,1.41,0,0,0,.6,1.21A2.56,2.56,0,0,0,302,170.11Z"></path><path class="cls-6" d="M313.53,171.4a5.06,5.06,0,0,1-2.92-.8,3.43,3.43,0,0,1-1.43-2.52l1.42-.33a3.07,3.07,0,0,0,.57,1.44,2.27,2.27,0,0,0,1,.74,4.06,4.06,0,0,0,1.32.22,2.88,2.88,0,0,0,1.65-.42,1.31,1.31,0,0,0,.61-1.12,1.07,1.07,0,0,0-.58-1,6.17,6.17,0,0,0-1.59-.48l-.78-.14a6.73,6.73,0,0,1-1.63-.47,3.06,3.06,0,0,1-1.18-.87,2.18,2.18,0,0,1-.44-1.39,2.3,2.3,0,0,1,1-2,5,5,0,0,1,5.12,0,3.22,3.22,0,0,1,1.27,2l-1.41.36a2,2,0,0,0-.82-1.42,2.94,2.94,0,0,0-1.59-.41,2.77,2.77,0,0,0-1.5.35,1.15,1.15,0,0,0-.55,1,1.06,1.06,0,0,0,.52,1,4,4,0,0,0,1.4.46l.77.14a10.25,10.25,0,0,1,1.78.46,2.93,2.93,0,0,1,1.25.85,2.17,2.17,0,0,1,.47,1.44,2.45,2.45,0,0,1-1,2.11A4.52,4.52,0,0,1,313.53,171.4Z"></path><path class="cls-6" d="M327.53,171.4a4.4,4.4,0,0,1-1.77-.34,2.88,2.88,0,0,1-1.25-1,2.61,2.61,0,0,1-.46-1.58,2.51,2.51,0,0,1,.46-1.56,2.77,2.77,0,0,1,1.25-.93,4.84,4.84,0,0,1,1.79-.32h3.13V165a2.07,2.07,0,0,0-.58-1.56,2.35,2.35,0,0,0-1.72-.57,2.62,2.62,0,0,0-1.75.54,2.78,2.78,0,0,0-.85,1.46l-1.4-.46a4.24,4.24,0,0,1,.72-1.42,3.6,3.6,0,0,1,1.32-1,4.6,4.6,0,0,1,2-.39,4,4,0,0,1,2.78.92,3.41,3.41,0,0,1,1,2.59v4.2q0,.57.54.57h.85v1.28h-1.31a1.42,1.42,0,0,1-1-.36,1.21,1.21,0,0,1-.38-.94v-.09h-.22a4.38,4.38,0,0,1-.57.75,2.6,2.6,0,0,1-.95.64A4,4,0,0,1,327.53,171.4Zm.17-1.29a3,3,0,0,0,2.16-.79,2.9,2.9,0,0,0,.82-2.21v-.21H327.6a2.6,2.6,0,0,0-1.47.39,1.33,1.33,0,0,0-.58,1.17,1.41,1.41,0,0,0,.6,1.21A2.59,2.59,0,0,0,327.7,170.11Z"></path><path class="cls-5" d="M340.12,171.14v-13.3h8.36v2.28h-5.85v3.21H348v2.28h-5.4v5.53Z"></path><path class="cls-5" d="M354.75,171.4a5.44,5.44,0,0,1-2.52-.57,4.27,4.27,0,0,1-1.77-1.65,5,5,0,0,1-.65-2.6v-.31a5,5,0,0,1,.65-2.6,4.27,4.27,0,0,1,1.77-1.65,5.44,5.44,0,0,1,2.52-.57,5.51,5.51,0,0,1,2.53.57,4.27,4.27,0,0,1,1.77,1.65,5,5,0,0,1,.64,2.6v.31a5,5,0,0,1-.64,2.6,4.27,4.27,0,0,1-1.77,1.65A5.51,5.51,0,0,1,354.75,171.4Zm0-2.13a2.49,2.49,0,0,0,1.83-.71,2.73,2.73,0,0,0,.72-2v-.19a2.76,2.76,0,0,0-.71-2,2.69,2.69,0,0,0-3.66,0,2.73,2.73,0,0,0-.72,2v.19a2.73,2.73,0,0,0,.72,2A2.46,2.46,0,0,0,354.75,169.27Z"></path><path class="cls-5" d="M365.49,171.29a3.59,3.59,0,0,1-1.93-.51,3.37,3.37,0,0,1-1.28-1.39,4.39,4.39,0,0,1-.46-2v-5.63h2.39v5.44a2.16,2.16,0,0,0,.53,1.59,2,2,0,0,0,1.49.53,2.1,2.1,0,0,0,1.71-.73,3.14,3.14,0,0,0,.6-2v-4.79h2.4v9.43h-2.36V169.9h-.34a2.59,2.59,0,0,1-.85.93A3.21,3.21,0,0,1,365.49,171.29Z"></path><path class="cls-5" d="M373.6,171.14v-9.43H376V163h.35a2.38,2.38,0,0,1,.85-.94,3.27,3.27,0,0,1,1.9-.45,3.67,3.67,0,0,1,1.93.5,3.44,3.44,0,0,1,1.28,1.39,4.37,4.37,0,0,1,.46,2.06v5.63h-2.4V165.7a2.16,2.16,0,0,0-.52-1.59,2,2,0,0,0-1.49-.54,2.1,2.1,0,0,0-1.71.74,3,3,0,0,0-.61,2v4.79Z"></path><path class="cls-5" d="M389.1,171.4a4.12,4.12,0,0,1-3.67-2.2,5.45,5.45,0,0,1-.58-2.62v-.31a5.45,5.45,0,0,1,.58-2.62A4.19,4.19,0,0,1,387,162a4.09,4.09,0,0,1,2.11-.56,4.31,4.31,0,0,1,1.44.2,3,3,0,0,1,.94.5,2.35,2.35,0,0,1,.55.65h.34v-5h2.39v13.3h-2.35V170h-.34a3.19,3.19,0,0,1-1,1A3.57,3.57,0,0,1,389.1,171.4Zm.72-2.09a2.59,2.59,0,0,0,1.85-.71,2.78,2.78,0,0,0,.74-2.08v-.19a2.8,2.8,0,0,0-.73-2.08,2.77,2.77,0,0,0-3.7,0,2.76,2.76,0,0,0-.74,2.08v.19a2.78,2.78,0,0,0,.74,2.08A2.57,2.57,0,0,0,389.82,169.31Z"></path><path class="cls-5" d="M400.35,171.4a4.56,4.56,0,0,1-1.81-.35,2.91,2.91,0,0,1-1.26-1,2.81,2.81,0,0,1-.47-1.64,2.7,2.7,0,0,1,.47-1.62,2.81,2.81,0,0,1,1.29-1,5.06,5.06,0,0,1,1.89-.33h2.59v-.54a1.5,1.5,0,0,0-.42-1.09,1.81,1.81,0,0,0-1.33-.43,1.89,1.89,0,0,0-1.33.41,2,2,0,0,0-.57,1.06l-2.21-.74a3.75,3.75,0,0,1,.74-1.32,3.46,3.46,0,0,1,1.35-1,5.06,5.06,0,0,1,2.06-.37,4.36,4.36,0,0,1,2.94.93,3.36,3.36,0,0,1,1.08,2.69v3.52q0,.57.54.57h.76v2h-1.6a1.88,1.88,0,0,1-1.16-.35,1.07,1.07,0,0,1-.45-.91v0h-.37a2.43,2.43,0,0,1-.34.6,2.2,2.2,0,0,1-.83.66A3.54,3.54,0,0,1,400.35,171.4Zm.42-1.94a2.35,2.35,0,0,0,1.64-.56,1.9,1.9,0,0,0,.64-1.49v-.19h-2.42a1.69,1.69,0,0,0-1,.29.91.91,0,0,0-.38.79,1,1,0,0,0,.4.84A1.76,1.76,0,0,0,400.77,169.46Z"></path><path class="cls-5" d="M411.33,171.14a2.07,2.07,0,0,1-1.51-.58,2.1,2.1,0,0,1-.58-1.55v-5.32h-2.36v-2h2.36v-2.92h2.39v2.92h2.59v2h-2.59v4.9q0,.57.54.57H414v2Z"></path><path class="cls-5" d="M417.58,160.61a1.52,1.52,0,0,1-1.09-.42,1.57,1.57,0,0,1,0-2.2,1.64,1.64,0,0,1,2.19,0,1.59,1.59,0,0,1,0,2.2A1.52,1.52,0,0,1,417.58,160.61Zm-1.2,10.53v-9.43h2.4v9.43Z"></path><path class="cls-5" d="M425.92,171.4a5.51,5.51,0,0,1-2.53-.57,4.3,4.3,0,0,1-1.76-1.65,5,5,0,0,1-.65-2.6v-.31a5,5,0,0,1,.65-2.6,4.3,4.3,0,0,1,1.76-1.65,5.9,5.9,0,0,1,5.06,0,4.3,4.3,0,0,1,1.76,1.65,5,5,0,0,1,.65,2.6v.31a5,5,0,0,1-.65,2.6,4.3,4.3,0,0,1-1.76,1.65A5.51,5.51,0,0,1,425.92,171.4Zm0-2.13a2.46,2.46,0,0,0,1.82-.71,2.73,2.73,0,0,0,.73-2v-.19a2.73,2.73,0,0,0-.72-2,2.67,2.67,0,0,0-3.65,0,2.69,2.69,0,0,0-.73,2v.19a2.69,2.69,0,0,0,.73,2A2.46,2.46,0,0,0,425.92,169.27Z"></path><path class="cls-5" d="M433.06,171.14v-9.43h2.36V163h.34a2.42,2.42,0,0,1,.86-.94,3.25,3.25,0,0,1,1.9-.45,3.66,3.66,0,0,1,1.92.5,3.46,3.46,0,0,1,1.29,1.39,4.5,4.5,0,0,1,.45,2.06v5.63h-2.39V165.7a2.2,2.2,0,0,0-.52-1.59,2,2,0,0,0-1.5-.54,2.08,2.08,0,0,0-1.7.74,3,3,0,0,0-.61,2v4.79Z"></path><path class="cls-5" d="M455.3,488.34V470.61H461l3.45,15.68h.43l3.47-15.68H474v17.73h-2.93V472.81h-.43l-3.45,15.53h-5.07l-3.44-15.53h-.43v15.53Z"></path><path class="cls-5" d="M481.52,488.69a5.71,5.71,0,0,1-2.38-.47,3.89,3.89,0,0,1-1.68-1.35,3.67,3.67,0,0,1-.63-2.18,3.53,3.53,0,0,1,.63-2.13,3.77,3.77,0,0,1,1.71-1.3,6.41,6.41,0,0,1,2.48-.45h3.62v-.76a2.17,2.17,0,0,0-.61-1.6,2.53,2.53,0,0,0-1.9-.62,2.72,2.72,0,0,0-1.91.59A2.9,2.9,0,0,0,480,480l-2.68-.88a5.08,5.08,0,0,1,1-1.8,4.79,4.79,0,0,1,1.79-1.31,6.7,6.7,0,0,1,2.73-.49,5.69,5.69,0,0,1,3.87,1.23,4.49,4.49,0,0,1,1.4,3.56v4.91c0,.51.24.76.71.76h1.07v2.41H487.8a2.32,2.32,0,0,1-1.49-.46,1.48,1.48,0,0,1-.58-1.24v-.05h-.43a4.6,4.6,0,0,1-.54.86,3,3,0,0,1-1.15.88A5,5,0,0,1,481.52,488.69Zm.48-2.38a3.38,3.38,0,0,0,2.36-.82,2.84,2.84,0,0,0,.91-2.22V483h-3.44a2.58,2.58,0,0,0-1.52.4,1.36,1.36,0,0,0-.59,1.19,1.49,1.49,0,0,0,.61,1.23A2.63,2.63,0,0,0,482,486.31Z"></path><path class="cls-5" d="M492.26,488.34V475.82h2.87v1.45h.43a2,2,0,0,1,.93-1.14,3.25,3.25,0,0,1,1.57-.36h1.52v2.59H498A3,3,0,0,0,496,479a2.57,2.57,0,0,0-.78,2.06v7.25Z"></path><path class="cls-5" d="M502.17,488.34V470.61h2.91v9.95h.43l4.51-4.74h3.82l-6.05,6.06,6.26,6.46h-3.78l-4.76-5.09h-.43v5.09Z"></path><path class="cls-5" d="M521.29,488.69a6.56,6.56,0,0,1-3.3-.8,5.55,5.55,0,0,1-2.23-2.25,6.9,6.9,0,0,1-.8-3.41v-.3a7.08,7.08,0,0,1,.78-3.42,5.6,5.6,0,0,1,2.21-2.24,6.55,6.55,0,0,1,3.27-.8,6.24,6.24,0,0,1,3.19.8,5.54,5.54,0,0,1,2.13,2.24,7.19,7.19,0,0,1,.75,3.37v1H517.9a3.13,3.13,0,0,0,1,2.35,3.5,3.5,0,0,0,2.43.89,3.08,3.08,0,0,0,2.1-.62,4.27,4.27,0,0,0,1-1.41l2.41,1.24a7.45,7.45,0,0,1-1,1.46,5.56,5.56,0,0,1-1.79,1.32A6.43,6.43,0,0,1,521.29,488.69Zm-3.37-8h6.41a2.8,2.8,0,0,0-1-2,3.23,3.23,0,0,0-2.19-.74,3.07,3.07,0,0,0-3.27,2.71Z"></path><path class="cls-5" d="M534.62,488.34a2.61,2.61,0,0,1-1.94-.72,2.68,2.68,0,0,1-.72-2v-7.42h-3.27v-2.41H532v-4h2.91v4h3.6v2.41h-3.6v6.94c0,.51.23.76.71.76h2.51v2.41Z"></path><path class="cls-5" d="M542.87,474.23a1.92,1.92,0,0,1-1.35-.52,2,2,0,0,1,0-2.76,1.92,1.92,0,0,1,1.35-.52,1.89,1.89,0,0,1,1.38.52,2,2,0,0,1,0,2.76A1.89,1.89,0,0,1,542.87,474.23Zm-1.44,14.11V475.82h2.91v12.52Z"></path><path class="cls-5" d="M548,488.34V475.82h2.86v1.75h.43a3.66,3.66,0,0,1,1.19-1.34,4.45,4.45,0,0,1,2.61-.63,4.9,4.9,0,0,1,2.56.66,4.55,4.55,0,0,1,1.74,1.82,5.85,5.85,0,0,1,.62,2.76v7.5h-2.92v-7.27a3.12,3.12,0,0,0-.74-2.27,2.87,2.87,0,0,0-2.12-.75,3.06,3.06,0,0,0-2.43,1A4.35,4.35,0,0,0,551,482v6.33Z"></path><path class="cls-5" d="M563,482.13v-.38a6.76,6.76,0,0,1,.79-3.38,5.43,5.43,0,0,1,2.1-2.15,5.74,5.74,0,0,1,2.89-.75,4.75,4.75,0,0,1,2.69.63,4.41,4.41,0,0,1,1.36,1.37h.43v-1.65h2.84v14.9a2.68,2.68,0,0,1-.71,2,2.6,2.6,0,0,1-1.93.72h-8.41v-2.53h7.42a.66.66,0,0,0,.74-.76v-3.62h-.43a4.55,4.55,0,0,1-.76.87,3.78,3.78,0,0,1-1.27.75,5.55,5.55,0,0,1-2,.3,5.73,5.73,0,0,1-2.89-.74,5.46,5.46,0,0,1-2.1-2.16A6.73,6.73,0,0,1,563,482.13Zm6.59,3.72a3.62,3.62,0,0,0,2.61-1,3.68,3.68,0,0,0,1-2.79v-.26a3.74,3.74,0,0,0-1-2.81,3.63,3.63,0,0,0-2.62-1,3.51,3.51,0,0,0-3.68,3.8v.26a3.52,3.52,0,0,0,3.68,3.79Z"></path><path class="cls-6" d="M458,511.2a4.38,4.38,0,0,1-1.76-.34,2.91,2.91,0,0,1-1.26-1,2.67,2.67,0,0,1-.45-1.57,2.58,2.58,0,0,1,.45-1.57,2.8,2.8,0,0,1,1.26-.93,4.78,4.78,0,0,1,1.78-.32h3.14v-.68a2.11,2.11,0,0,0-.58-1.56,2.36,2.36,0,0,0-1.72-.57,2.6,2.6,0,0,0-1.75.54,2.71,2.71,0,0,0-.85,1.46l-1.41-.46a4.1,4.1,0,0,1,.72-1.41,3.52,3.52,0,0,1,1.32-1,4.62,4.62,0,0,1,2-.39,3.92,3.92,0,0,1,2.77.92,3.38,3.38,0,0,1,1,2.59v4.2c0,.38.18.57.53.57H464v1.28H462.7a1.4,1.4,0,0,1-1-.36,1.18,1.18,0,0,1-.38-.94v-.09h-.23a4.85,4.85,0,0,1-.56.75,2.65,2.65,0,0,1-1,.64A4,4,0,0,1,458,511.2Zm.17-1.29a3,3,0,0,0,2.16-.79,2.9,2.9,0,0,0,.83-2.21v-.21h-3.08a2.55,2.55,0,0,0-1.47.39,1.31,1.31,0,0,0-.58,1.17,1.41,1.41,0,0,0,.6,1.21A2.53,2.53,0,0,0,458.15,509.91Z"></path><path class="cls-6" d="M469.72,511.2a5,5,0,0,1-2.91-.8,3.47,3.47,0,0,1-1.44-2.52l1.43-.33a3.07,3.07,0,0,0,.57,1.44,2.29,2.29,0,0,0,1,.74,3.81,3.81,0,0,0,1.32.22,2.89,2.89,0,0,0,1.66-.42,1.3,1.3,0,0,0,.6-1.12,1.06,1.06,0,0,0-.57-1,6.17,6.17,0,0,0-1.59-.48l-.78-.14a6.6,6.6,0,0,1-1.63-.47,3,3,0,0,1-1.18-.87,2.18,2.18,0,0,1-.44-1.39,2.27,2.27,0,0,1,1-2,5,5,0,0,1,5.12,0,3.28,3.28,0,0,1,1.26,2l-1.4.36a2,2,0,0,0-.82-1.42,2.94,2.94,0,0,0-1.59-.41,2.74,2.74,0,0,0-1.51.36,1.15,1.15,0,0,0-.55,1,1.07,1.07,0,0,0,.53,1,4,4,0,0,0,1.39.46l.78.14a10.25,10.25,0,0,1,1.78.46,3,3,0,0,1,1.25.85,2.17,2.17,0,0,1,.47,1.44,2.45,2.45,0,0,1-1,2.11A4.58,4.58,0,0,1,469.72,511.2Z"></path><path class="cls-6" d="M483.73,511.2a4.4,4.4,0,0,1-1.77-.34,2.88,2.88,0,0,1-1.25-1,2.6,2.6,0,0,1-.46-1.57,2.52,2.52,0,0,1,.46-1.57,2.77,2.77,0,0,1,1.25-.93,4.82,4.82,0,0,1,1.78-.32h3.14v-.68a2.07,2.07,0,0,0-.58-1.56,2.36,2.36,0,0,0-1.72-.57,2.6,2.6,0,0,0-1.75.54,2.71,2.71,0,0,0-.85,1.46l-1.41-.46a4.1,4.1,0,0,1,.72-1.41,3.52,3.52,0,0,1,1.32-1,4.68,4.68,0,0,1,2-.39,3.92,3.92,0,0,1,2.77.92,3.38,3.38,0,0,1,1,2.59v4.2c0,.38.18.57.53.57h.86v1.28h-1.31a1.4,1.4,0,0,1-1-.36,1.21,1.21,0,0,1-.38-.94v-.09h-.23a4.28,4.28,0,0,1-.56.75,2.56,2.56,0,0,1-1,.64A3.9,3.9,0,0,1,483.73,511.2Zm.17-1.29a3,3,0,0,0,2.15-.79,2.9,2.9,0,0,0,.83-2.21v-.21H483.8a2.57,2.57,0,0,0-1.47.39,1.31,1.31,0,0,0-.58,1.17,1.41,1.41,0,0,0,.6,1.21A2.56,2.56,0,0,0,483.9,509.91Z"></path><path class="cls-5" d="M501.37,511.2a5.43,5.43,0,0,1-3.91-1.38,5.18,5.18,0,0,1-1.44-3.94v-3.19a5.2,5.2,0,0,1,1.44-3.94,5.43,5.43,0,0,1,3.91-1.38,5.12,5.12,0,0,1,3.79,1.34,4.94,4.94,0,0,1,1.34,3.68v.11H504v-.19a2.86,2.86,0,0,0-.65-1.94,2.54,2.54,0,0,0-2-.76,2.75,2.75,0,0,0-2.09.82,3.16,3.16,0,0,0-.76,2.22v3.27a3.17,3.17,0,0,0,.76,2.21,2.72,2.72,0,0,0,2.09.83,2.51,2.51,0,0,0,2-.77,2.85,2.85,0,0,0,.65-1.93v-.34h2.47v.27a4.93,4.93,0,0,1-1.34,3.67A5.08,5.08,0,0,1,501.37,511.2Z"></path><path class="cls-5" d="M511.56,511.2a4.33,4.33,0,0,1-1.81-.35,2.91,2.91,0,0,1-1.26-1,2.81,2.81,0,0,1-.47-1.64,2.7,2.7,0,0,1,.47-1.62,2.81,2.81,0,0,1,1.29-1,5.06,5.06,0,0,1,1.89-.33h2.58v-.54a1.54,1.54,0,0,0-.41-1.09,1.83,1.83,0,0,0-1.33-.43,1.89,1.89,0,0,0-1.33.41,1.93,1.93,0,0,0-.57,1.06l-2.21-.74a3.9,3.9,0,0,1,.73-1.32,3.61,3.61,0,0,1,1.35-1,5.09,5.09,0,0,1,2.06-.37,4.37,4.37,0,0,1,3,.93,3.37,3.37,0,0,1,1.08,2.7v3.51c0,.38.18.57.53.57h.76v2h-1.59a1.86,1.86,0,0,1-1.16-.35,1.06,1.06,0,0,1-.46-.91v0h-.36a2.43,2.43,0,0,1-.34.6,2.24,2.24,0,0,1-.84.66A3.52,3.52,0,0,1,511.56,511.2Zm.41-1.94a2.38,2.38,0,0,0,1.65-.56,1.89,1.89,0,0,0,.63-1.49V507h-2.41a1.69,1.69,0,0,0-1,.29.91.91,0,0,0-.38.79,1,1,0,0,0,.4.84A1.75,1.75,0,0,0,512,509.26Z"></path><path class="cls-5" d="M522.54,510.94a2.06,2.06,0,0,1-1.51-.58,2.1,2.1,0,0,1-.58-1.55v-5.32h-2.36v-2h2.36v-2.92h2.39v2.92h2.58v2h-2.58v4.9c0,.38.18.57.53.57h1.83v2Z"></path><path class="cls-5" d="M530.52,511.2a4.36,4.36,0,0,1-1.81-.35,2.91,2.91,0,0,1-1.26-1,2.81,2.81,0,0,1-.47-1.64,2.7,2.7,0,0,1,.47-1.62,2.81,2.81,0,0,1,1.29-1,5.06,5.06,0,0,1,1.89-.33h2.58v-.54a1.49,1.49,0,0,0-.41-1.09,1.81,1.81,0,0,0-1.33-.43,1.89,1.89,0,0,0-1.33.41,2,2,0,0,0-.57,1.06l-2.21-.74a4.08,4.08,0,0,1,.73-1.32,3.61,3.61,0,0,1,1.35-1,5.09,5.09,0,0,1,2.06-.37,4.37,4.37,0,0,1,3,.93,3.37,3.37,0,0,1,1.08,2.7v3.51c0,.38.18.57.53.57h.77v2h-1.6a1.86,1.86,0,0,1-1.16-.35,1.08,1.08,0,0,1-.46-.91v0h-.36a2.43,2.43,0,0,1-.34.6,2.2,2.2,0,0,1-.83.66A3.54,3.54,0,0,1,530.52,511.2Zm.42-1.94a2.37,2.37,0,0,0,1.64-.56,1.89,1.89,0,0,0,.63-1.49V507H530.8a1.69,1.69,0,0,0-1,.29.91.91,0,0,0-.38.79,1,1,0,0,0,.4.84A1.76,1.76,0,0,0,530.94,509.26Z"></path><path class="cls-5" d="M538.57,510.94v-13.3H541v13.3Z"></path><path class="cls-5" d="M544.65,514.74v-2.09h5.13c.35,0,.53-.19.53-.57V509.7H550a2.41,2.41,0,0,1-.47.65,2.58,2.58,0,0,1-.88.53,4,4,0,0,1-1.4.21,3.59,3.59,0,0,1-1.93-.51,3.46,3.46,0,0,1-1.29-1.39,4.51,4.51,0,0,1-.45-2.05v-5.63h2.39V507a2.2,2.2,0,0,0,.52,1.59,2,2,0,0,0,1.5.53,2.1,2.1,0,0,0,1.71-.73,3.14,3.14,0,0,0,.6-2v-4.79h2.4v11.1a2.13,2.13,0,0,1-.57,1.55,2.07,2.07,0,0,1-1.52.58Z"></path><path class="cls-5" d="M559.24,511.2a5.22,5.22,0,0,1-3-.8,3.27,3.27,0,0,1-1.42-2.28l2.2-.57a2.32,2.32,0,0,0,.45,1.05,1.78,1.78,0,0,0,.78.54,3,3,0,0,0,1,.16,2.16,2.16,0,0,0,1.24-.29.9.9,0,0,0,.4-.73.76.76,0,0,0-.38-.68,3.62,3.62,0,0,0-1.22-.39l-.53-.09a9.36,9.36,0,0,1-1.81-.53,3.23,3.23,0,0,1-1.31-.92,2.28,2.28,0,0,1-.49-1.52,2.51,2.51,0,0,1,1-2.15,4.49,4.49,0,0,1,2.7-.75,4.57,4.57,0,0,1,2.62.7,3.2,3.2,0,0,1,1.37,1.84l-2.22.69a1.54,1.54,0,0,0-.62-1,2.07,2.07,0,0,0-1.15-.3,2,2,0,0,0-1,.23.75.75,0,0,0-.36.66.71.71,0,0,0,.38.67,3.11,3.11,0,0,0,1,.34l.53.09a12.87,12.87,0,0,1,1.93.5,3.22,3.22,0,0,1,1.37.9,2.27,2.27,0,0,1,.5,1.56,2.7,2.7,0,0,1-1.07,2.29A4.69,4.69,0,0,1,559.24,511.2Z"></path><path class="cls-5" d="M568.7,510.94a2.07,2.07,0,0,1-1.51-.58,2.14,2.14,0,0,1-.58-1.55v-5.32h-2.35v-2h2.35v-2.92H569v2.92h2.58v2H569v4.9c0,.38.17.57.53.57h1.82v2Z"></path><path class="cls-5" d="M111.72,488.69a7.21,7.21,0,0,1-5.17-1.83,7,7,0,0,1-1.92-5.29v-4.2a7,7,0,0,1,1.92-5.28,7.17,7.17,0,0,1,5.17-1.84,6.74,6.74,0,0,1,5,1.77,6.6,6.6,0,0,1,1.76,4.87V477h-3v-.23a4.07,4.07,0,0,0-.93-2.75,3.59,3.59,0,0,0-2.85-1.07,3.83,3.83,0,0,0-3,1.15,4.47,4.47,0,0,0-1.08,3.18v4.3a4.48,4.48,0,0,0,1.08,3.17,3.81,3.81,0,0,0,3,1.17,3.56,3.56,0,0,0,2.85-1.08,4.05,4.05,0,0,0,.93-2.75v-.43h3v.36a6.56,6.56,0,0,1-1.76,4.86A6.74,6.74,0,0,1,111.72,488.69Z"></path><path class="cls-5" d="M127.38,488.69a7.23,7.23,0,0,1-3.36-.77,5.75,5.75,0,0,1-2.33-2.2,6.6,6.6,0,0,1-.85-3.44v-.4a6.66,6.66,0,0,1,.85-3.45,5.62,5.62,0,0,1,2.33-2.2,7.23,7.23,0,0,1,3.36-.76,7.12,7.12,0,0,1,3.34.76,5.71,5.71,0,0,1,2.32,2.2,6.76,6.76,0,0,1,.85,3.45v.4a6.7,6.7,0,0,1-.85,3.44,5.85,5.85,0,0,1-2.32,2.2A7.12,7.12,0,0,1,127.38,488.69Zm0-2.58a3.5,3.5,0,0,0,2.61-1,3.92,3.92,0,0,0,1-2.87V482a3.92,3.92,0,0,0-1-2.87,3.82,3.82,0,0,0-5.22,0,3.89,3.89,0,0,0-1,2.87v.26a3.89,3.89,0,0,0,1,2.87A3.47,3.47,0,0,0,127.38,486.11Z"></path><path class="cls-5" d="M137,488.34V475.82h2.86v1.75h.43a3.66,3.66,0,0,1,1.19-1.34,4.4,4.4,0,0,1,2.61-.63,5,5,0,0,1,2.56.66,4.47,4.47,0,0,1,1.73,1.82,5.74,5.74,0,0,1,.62,2.76v7.5h-2.91v-7.27a3.08,3.08,0,0,0-.75-2.27,2.85,2.85,0,0,0-2.11-.75,3.06,3.06,0,0,0-2.43,1,4.3,4.3,0,0,0-.89,2.93v6.33Z"></path><path class="cls-5" d="M157.72,488.69a7,7,0,0,1-4-1.06,4.42,4.42,0,0,1-1.9-3.12l2.68-.68a3.27,3.27,0,0,0,.64,1.52,2.41,2.41,0,0,0,1.13.78,4.24,4.24,0,0,0,1.45.23,3,3,0,0,0,1.79-.43,1.31,1.31,0,0,0,.59-1.09,1.09,1.09,0,0,0-.57-1,5.82,5.82,0,0,0-1.73-.56l-.79-.13a12,12,0,0,1-2.35-.69,4.36,4.36,0,0,1-1.71-1.22,3,3,0,0,1-.65-2,3.25,3.25,0,0,1,1.36-2.81,5.88,5.88,0,0,1,3.55-1,6,6,0,0,1,3.48.94,4.23,4.23,0,0,1,1.77,2.5l-2.69.81a2.16,2.16,0,0,0-.88-1.5,3,3,0,0,0-1.68-.45,2.8,2.8,0,0,0-1.55.36,1.13,1.13,0,0,0-.55,1,1.08,1.08,0,0,0,.56,1,4.28,4.28,0,0,0,1.49.48l.79.15a15.89,15.89,0,0,1,2.52.66,4.18,4.18,0,0,1,1.79,1.17,3,3,0,0,1,.66,2.05,3.52,3.52,0,0,1-1.41,3A6.2,6.2,0,0,1,157.72,488.69Z"></path><path class="cls-5" d="M170.64,488.54a5,5,0,0,1-2.56-.65,4.32,4.32,0,0,1-1.72-1.82,5.84,5.84,0,0,1-.61-2.75v-7.5h2.89v7.27a3,3,0,0,0,.75,2.26,2.86,2.86,0,0,0,2.11.73,3.1,3.1,0,0,0,2.45-1,4.26,4.26,0,0,0,.9-2.91v-6.34h2.88v12.52H174.9v-1.75h-.43a3.68,3.68,0,0,1-1.21,1.32A4.46,4.46,0,0,1,170.64,488.54Z"></path><path class="cls-5" d="M181.43,488.34V470.61h2.91v17.73Z"></path><path class="cls-5" d="M192.8,488.34a2.6,2.6,0,0,1-1.93-.72,2.69,2.69,0,0,1-.73-2v-7.42h-3.26v-2.41h3.26v-4h2.92v4h3.6v2.41h-3.6v6.94c0,.51.23.76.71.76h2.51v2.41Z"></path><path class="cls-5" d="M203.47,488.69a5.71,5.71,0,0,1-2.38-.47,4,4,0,0,1-1.69-1.35,3.74,3.74,0,0,1-.62-2.18,3.6,3.6,0,0,1,.62-2.13,3.88,3.88,0,0,1,1.71-1.3,6.5,6.5,0,0,1,2.49-.45h3.62v-.76a2.17,2.17,0,0,0-.61-1.6,2.53,2.53,0,0,0-1.9-.62,2.72,2.72,0,0,0-1.91.59A2.83,2.83,0,0,0,202,480l-2.69-.88a5.27,5.27,0,0,1,1-1.8A4.79,4.79,0,0,1,202,476a6.7,6.7,0,0,1,2.73-.49,5.64,5.64,0,0,1,3.86,1.23,4.46,4.46,0,0,1,1.41,3.56v4.91c0,.51.24.76.71.76h1.06v2.41h-2.05a2.29,2.29,0,0,1-1.49-.46,1.49,1.49,0,0,1-.59-1.24v-.05h-.43a4.47,4.47,0,0,1-.53.86,3.07,3.07,0,0,1-1.15.88A5,5,0,0,1,203.47,488.69Zm.48-2.38a3.39,3.39,0,0,0,2.36-.82,2.87,2.87,0,0,0,.91-2.22V483h-3.45a2.62,2.62,0,0,0-1.52.4,1.35,1.35,0,0,0-.58,1.19,1.46,1.46,0,0,0,.61,1.23A2.61,2.61,0,0,0,204,486.31Z"></path><path class="cls-5" d="M218.08,488.34a2.6,2.6,0,0,1-1.93-.72,2.69,2.69,0,0,1-.73-2v-7.42h-3.26v-2.41h3.26v-4h2.92v4h3.6v2.41h-3.6v6.94c0,.51.23.76.71.76h2.51v2.41Z"></path><path class="cls-5" d="M226.34,474.23a1.92,1.92,0,0,1-1.35-.52,2,2,0,0,1,0-2.76,1.92,1.92,0,0,1,1.35-.52,1.89,1.89,0,0,1,1.38.52,2,2,0,0,1,0,2.76A1.89,1.89,0,0,1,226.34,474.23Zm-1.44,14.11V475.82h2.91v12.52Z"></path><path class="cls-5" d="M237.44,488.69a7.23,7.23,0,0,1-3.36-.77,5.81,5.81,0,0,1-2.33-2.2,6.6,6.6,0,0,1-.85-3.44v-.4a6.66,6.66,0,0,1,.85-3.45,5.68,5.68,0,0,1,2.33-2.2,7.23,7.23,0,0,1,3.36-.76,7.12,7.12,0,0,1,3.34.76,5.71,5.71,0,0,1,2.32,2.2,6.66,6.66,0,0,1,.85,3.45v.4a6.6,6.6,0,0,1-.85,3.44,5.85,5.85,0,0,1-2.32,2.2A7.12,7.12,0,0,1,237.44,488.69Zm0-2.58a3.5,3.5,0,0,0,2.61-1,3.92,3.92,0,0,0,1-2.87V482a3.92,3.92,0,0,0-1-2.87,3.82,3.82,0,0,0-5.22,0,3.88,3.88,0,0,0-1,2.87v.26a3.88,3.88,0,0,0,1,2.87A3.47,3.47,0,0,0,237.44,486.11Z"></path><path class="cls-5" d="M247,488.34V475.82h2.86v1.75h.43a3.66,3.66,0,0,1,1.19-1.34,4.4,4.4,0,0,1,2.61-.63,4.93,4.93,0,0,1,2.56.66,4.47,4.47,0,0,1,1.73,1.82,5.74,5.74,0,0,1,.62,2.76v7.5h-2.91v-7.27a3.08,3.08,0,0,0-.75-2.27,2.83,2.83,0,0,0-2.11-.75,3.06,3.06,0,0,0-2.43,1A4.35,4.35,0,0,0,250,482v6.33Z"></path><path class="cls-6" d="M107.74,511.2a4.4,4.4,0,0,1-1.77-.34,2.88,2.88,0,0,1-1.25-1,2.6,2.6,0,0,1-.46-1.57,2.52,2.52,0,0,1,.46-1.57,2.77,2.77,0,0,1,1.25-.93,4.84,4.84,0,0,1,1.79-.32h3.13v-.68a2.07,2.07,0,0,0-.58-1.56,2.35,2.35,0,0,0-1.72-.57,2.62,2.62,0,0,0-1.75.54,2.78,2.78,0,0,0-.85,1.46l-1.41-.46a4.3,4.3,0,0,1,.73-1.41,3.52,3.52,0,0,1,1.32-1,4.6,4.6,0,0,1,2-.39,4,4,0,0,1,2.78.92,3.41,3.41,0,0,1,1,2.59v4.2q0,.57.54.57h.85v1.28h-1.31a1.42,1.42,0,0,1-1-.36,1.21,1.21,0,0,1-.38-.94v-.09h-.23a3.83,3.83,0,0,1-.56.75,2.6,2.6,0,0,1-1,.64A4,4,0,0,1,107.74,511.2Zm.17-1.29a3,3,0,0,0,2.16-.79,2.9,2.9,0,0,0,.82-2.21v-.21h-3.08a2.6,2.6,0,0,0-1.47.39,1.33,1.33,0,0,0-.58,1.17,1.41,1.41,0,0,0,.6,1.21A2.59,2.59,0,0,0,107.91,509.91Z"></path><path class="cls-6" d="M119.48,511.2a5.06,5.06,0,0,1-2.92-.8,3.43,3.43,0,0,1-1.43-2.52l1.42-.33a3.07,3.07,0,0,0,.57,1.44,2.32,2.32,0,0,0,1,.74,3.81,3.81,0,0,0,1.32.22,2.86,2.86,0,0,0,1.65-.42,1.29,1.29,0,0,0,.61-1.12,1,1,0,0,0-.58-1,6,6,0,0,0-1.59-.48l-.78-.14a6.86,6.86,0,0,1-1.63-.47,3,3,0,0,1-1.18-.87,2.18,2.18,0,0,1-.43-1.39,2.29,2.29,0,0,1,1-2,5,5,0,0,1,5.12,0,3.25,3.25,0,0,1,1.27,2l-1.41.36a2,2,0,0,0-.81-1.42,3,3,0,0,0-1.6-.41,2.73,2.73,0,0,0-1.5.36,1.13,1.13,0,0,0-.55,1,1.06,1.06,0,0,0,.52,1,4,4,0,0,0,1.4.46l.78.14a10.12,10.12,0,0,1,1.77.46,3,3,0,0,1,1.26.85,2.16,2.16,0,0,1,.46,1.44,2.47,2.47,0,0,1-1,2.11A4.58,4.58,0,0,1,119.48,511.2Z"></path><path class="cls-6" d="M133.48,511.2a4.43,4.43,0,0,1-1.77-.34,2.88,2.88,0,0,1-1.25-1,2.67,2.67,0,0,1-.46-1.57,2.59,2.59,0,0,1,.46-1.57,2.77,2.77,0,0,1,1.25-.93,4.87,4.87,0,0,1,1.79-.32h3.13v-.68a2.07,2.07,0,0,0-.58-1.56,2.35,2.35,0,0,0-1.72-.57,2.57,2.57,0,0,0-1.74.54,2.73,2.73,0,0,0-.86,1.46l-1.4-.46a4.1,4.1,0,0,1,.72-1.41,3.52,3.52,0,0,1,1.32-1,4.6,4.6,0,0,1,2-.39,4,4,0,0,1,2.78.92,3.38,3.38,0,0,1,1,2.59v4.2c0,.38.17.57.53.57h.85v1.28h-1.31a1.42,1.42,0,0,1-1-.36,1.21,1.21,0,0,1-.38-.94v-.09h-.22a4.85,4.85,0,0,1-.56.75,2.73,2.73,0,0,1-1,.64A4,4,0,0,1,133.48,511.2Zm.17-1.29a3,3,0,0,0,2.16-.79,2.9,2.9,0,0,0,.82-2.21v-.21h-3.07a2.61,2.61,0,0,0-1.48.39,1.33,1.33,0,0,0-.58,1.17,1.41,1.41,0,0,0,.6,1.21A2.59,2.59,0,0,0,133.65,509.91Z"></path><path class="cls-5" d="M150.67,511.2a4.94,4.94,0,0,1-2.48-.62,4.43,4.43,0,0,1-1.76-1.8,5.89,5.89,0,0,1-.66-2.9v-3.19a5.2,5.2,0,0,1,1.44-3.94,5.45,5.45,0,0,1,3.92-1.38,5.2,5.2,0,0,1,3.79,1.3,4.7,4.7,0,0,1,1.34,3.53v.07h-2.47v-.15a2.67,2.67,0,0,0-.3-1.27,2.2,2.2,0,0,0-.88-.91,3,3,0,0,0-1.48-.33,2.72,2.72,0,0,0-2.09.82,3.12,3.12,0,0,0-.76,2.22v3.27a3.19,3.19,0,0,0,.76,2.23,2.68,2.68,0,0,0,2.13.85,2.51,2.51,0,0,0,2-.72,2.7,2.7,0,0,0,.63-1.83v-.19h-3.16v-2.13h5.63v6.81h-2.32v-1.28h-.34a2.66,2.66,0,0,1-.43.69,2.2,2.2,0,0,1-.88.6A4.2,4.2,0,0,1,150.67,511.2Z"></path><path class="cls-5" d="M162.32,511.09a3.59,3.59,0,0,1-1.93-.51,3.37,3.37,0,0,1-1.28-1.39,4.39,4.39,0,0,1-.46-2.05v-5.63H161V507a2.16,2.16,0,0,0,.53,1.59,2,2,0,0,0,1.49.53,2.1,2.1,0,0,0,1.71-.73,3.14,3.14,0,0,0,.61-2v-4.79h2.39v9.43h-2.35V509.7h-.35a2.5,2.5,0,0,1-.85.93A3.19,3.19,0,0,1,162.32,511.09Z"></path><path class="cls-5" d="M171.63,500.41a1.52,1.52,0,0,1-1.09-.42,1.57,1.57,0,0,1,0-2.2,1.64,1.64,0,0,1,2.19,0,1.59,1.59,0,0,1,0,2.2A1.52,1.52,0,0,1,171.63,500.41Zm-1.2,10.53v-9.43h2.39v9.43Z"></path><path class="cls-5" d="M179.28,511.2a4.23,4.23,0,0,1-2.1-.56,4.05,4.05,0,0,1-1.56-1.64,5.34,5.34,0,0,1-.59-2.62v-.31a5.34,5.34,0,0,1,.59-2.62,4.06,4.06,0,0,1,3.66-2.2,4.31,4.31,0,0,1,1.44.2,3,3,0,0,1,.94.5,2.47,2.47,0,0,1,.55.64h.34v-4.95H185v13.3h-2.36V509.8h-.34a3.19,3.19,0,0,1-1,1A3.57,3.57,0,0,1,179.28,511.2Zm.73-2.09a2.58,2.58,0,0,0,1.84-.71,2.76,2.76,0,0,0,.74-2.08v-.19a2.76,2.76,0,0,0-.73-2.08,2.77,2.77,0,0,0-3.7,0,2.76,2.76,0,0,0-.74,2.08v.19a2.76,2.76,0,0,0,.74,2.08A2.59,2.59,0,0,0,180,509.11Z"></path><path class="cls-5" d="M191.9,511.2a5,5,0,0,1-2.48-.6,4.18,4.18,0,0,1-1.67-1.69,5.25,5.25,0,0,1-.6-2.57v-.23a5.22,5.22,0,0,1,.59-2.57,4.16,4.16,0,0,1,1.65-1.7,5,5,0,0,1,2.47-.59,4.59,4.59,0,0,1,2.41.61,4.32,4.32,0,0,1,1.6,1.71,5.43,5.43,0,0,1,.57,2.54v.82h-6.86a2.15,2.15,0,0,0,.72,1.57,2.42,2.42,0,0,0,1.67.61,2.16,2.16,0,0,0,1.49-.43,3.44,3.44,0,0,0,.72-1l1.95,1a6,6,0,0,1-.76,1.08,4.35,4.35,0,0,1-1.34,1A4.76,4.76,0,0,1,191.9,511.2Zm-2.3-6.06H194a1.88,1.88,0,0,0-.66-1.31,2.25,2.25,0,0,0-1.51-.49,2.28,2.28,0,0,0-1.54.49A2.14,2.14,0,0,0,189.6,505.14Z"></path><path class="cls-7" d="M370,55.5a2.34,2.34,0,0,1,1.38,2.5c-.05,2.13,0,4.27,0,6.42a2,2,0,0,1-2.1,2.27,16.7,16.7,0,0,0-2.47,33c.93.2,1.89.27,2.84.41a1.82,1.82,0,0,1,1.73,1.89q0,3.66,0,7.34a1.83,1.83,0,0,1-2,1.9c-.5,0-1-.06-1.52-.12a2.63,2.63,0,0,1-2.25-2.26c-.13-.8-.26-1.6-.38-2.4a.59.59,0,0,0-.51-.57,21.63,21.63,0,0,1-6-2.51.51.51,0,0,0-.68,0c-.67.51-1.37,1-2.07,1.49a2.52,2.52,0,0,1-3.34-.18c-1.17-1.1-2.32-2.23-3.41-3.41a2.5,2.5,0,0,1-.15-3.3c.49-.7,1-1.39,1.49-2.07a.52.52,0,0,0,0-.68,22,22,0,0,1-2.53-6.09.52.52,0,0,0-.49-.46c-.8-.11-1.57-.27-2.36-.39a2.63,2.63,0,0,1-2.4-2.63,4.5,4.5,0,0,0-.11-.64V81.72a4.76,4.76,0,0,0,.11-.64,2.65,2.65,0,0,1,2.46-2.64c.75-.11,1.5-.26,2.25-.36a.58.58,0,0,0,.56-.52,21.78,21.78,0,0,1,2.52-6,.55.55,0,0,0-.08-.71c-.49-.67-1-1.33-1.45-2a2.47,2.47,0,0,1,.12-3.29c1.11-1.21,2.28-2.38,3.49-3.49a2.49,2.49,0,0,1,3.25-.14c.71.49,1.41,1,2.13,1.5a.72.72,0,0,0,.61,0,24.41,24.41,0,0,1,6.13-2.56.67.67,0,0,0,.41-.44c.17-.83.29-1.67.43-2.51A2.6,2.6,0,0,1,368,55.61l.47-.1Zm-.53,46.41a18.4,18.4,0,0,1-12.48-5.76A18.54,18.54,0,0,1,355.69,72a18.44,18.44,0,0,1,13.71-7.22V57.35c-.42,0-.8.09-1.17.1a.82.82,0,0,0-.9.75s0,0,0,0c-.15,1-.33,2-.5,3s-.27,1-1.09,1.19a20.67,20.67,0,0,0-6.81,2.87,1.15,1.15,0,0,1-1.49,0c-.85-.64-1.74-1.25-2.6-1.86a.81.81,0,0,0-1.17,0c-1,1-2.06,2-3.05,3-.52.54-.49.75,0,1.38.61.85,1.21,1.71,1.84,2.56a1.07,1.07,0,0,1,0,1.35,20.93,20.93,0,0,0-2.93,7.09,1,1,0,0,1-1,.88c-1.09.17-2.17.37-3.27.53a.78.78,0,0,0-.77.83q0,2.22,0,4.44a.81.81,0,0,0,.8.86c1.07.15,2.14.35,3.22.53a1.07,1.07,0,0,1,1,.92,20.64,20.64,0,0,0,2.92,7,1.13,1.13,0,0,1-.05,1.4c-.63.85-1.23,1.71-1.84,2.57-.42.58-.44.82.05,1.33,1,1,2,2,3,3a.84.84,0,0,0,1.25.07c.86-.64,1.74-1.24,2.6-1.88a1.09,1.09,0,0,1,1.4-.06,20.63,20.63,0,0,0,7,2.93,1.1,1.1,0,0,1,.93,1c.15,1.07.32,2.15.53,3.2a1,1,0,0,0,.55.7,7.08,7.08,0,0,0,1.52.17Z"></path><path class="cls-8" d="M371.32,79.64v2.75l.6,0h20.39A.67.67,0,0,0,393,82a2.77,2.77,0,1,1,0,2.65.6.6,0,0,0-.62-.39H371.74l-.37,0V87h14.4a2.87,2.87,0,0,1,3.2,3.2v4a.61.61,0,0,0,.35.63A2.75,2.75,0,0,1,390.71,98a2.78,2.78,0,0,1-5.38,0,2.75,2.75,0,0,1,1.41-3.17.6.6,0,0,0,.37-.63V90.06c0-.8-.35-1.15-1.12-1.15h-14.3a1.84,1.84,0,0,0-.31,0V91.7h10.19a.92.92,0,0,1,0,1.84H371.35v1.87h5.35a2.75,2.75,0,0,1,2.95,3q0,2.52,0,5.07a.65.65,0,0,0,.38.68,2.73,2.73,0,0,1,1.41,3.11,2.78,2.78,0,0,1-5.39,0,2.74,2.74,0,0,1,1.4-3.17.59.59,0,0,0,.36-.63V98.41c0-.83-.32-1.15-1.15-1.15H371.5a.79.79,0,0,0-.55.21,1.83,1.83,0,0,1-1.65.66,14.15,14.15,0,0,1-8.66-3.62c-4.46-4.07-6.11-9.14-4.57-15s5.47-9.35,11.31-10.75a15.08,15.08,0,0,1,2.1-.27,1.76,1.76,0,0,1,1.41.59,1,1,0,0,0,.62.28c1.72,0,3.45,0,5.17,0,.8,0,1.13-.31,1.13-1.11V63.21a.67.67,0,0,0-.42-.67,2.75,2.75,0,0,1-1.34-3.15,2.82,2.82,0,0,1,2.65-2,2.79,2.79,0,0,1,1.37,5.23.67.67,0,0,0-.42.71c0,1.67,0,3.34,0,5a2.76,2.76,0,0,1-3,3h-5.27v1.86h9.78a2.09,2.09,0,0,1,.75.09.83.83,0,0,1,.56,1,.87.87,0,0,1-.78.79,4.7,4.7,0,0,1-.53,0h-9.77v2.8h14.42c1,0,1.32-.29,1.32-1.34V72.59a.72.72,0,0,0-.42-.76,2.72,2.72,0,0,1-1.34-3.14,2.79,2.79,0,0,1,5.37,0,2.74,2.74,0,0,1-1.3,3.17.75.75,0,0,0-.45.8c0,1.3,0,2.61,0,3.92a2.83,2.83,0,0,1-3.1,3.11H371.32Zm-1.89-9.28c-5,.61-8.7,3-10.78,7.5a13,13,0,0,0,10.78,18.45Zm10.22-10.22a.93.93,0,0,0-.92-.93h0a1,1,0,0,0-.91.91.94.94,0,0,0,.92.94h0a.9.9,0,0,0,.92-.86Zm0,46.41a.89.89,0,0,0-.87-.91,0,0,0,0,0,0,0,.92.92,0,0,0-.92.88,1,1,0,0,0,.92,1,.92.92,0,0,0,.92-.91Zm15.81-24.11a.91.91,0,0,0-.95.88.92.92,0,0,0,.89,1h0a.92.92,0,0,0,.06-1.83Zm-8.36-13a.91.91,0,0,0,.91.9h0a.94.94,0,0,0,.89-.91.93.93,0,0,0-.92-.93h0a.9.9,0,0,0-.9.9v0ZM388,96.36a.91.91,0,0,0-.85,1,.92.92,0,1,0,.95-1Z"></path><path class="cls-9" d="M563.25,398.32c2.63-.75,4.49-.18,5.57,1.67s.66,3.78-1.31,5.71c1.2,2.09,2.39,4.16,3.61,6.24a3.71,3.71,0,0,1,.47,2.87,3.73,3.73,0,0,1-6.63,1.38,1.16,1.16,0,0,0-1-.52,39.19,39.19,0,0,0-13.81,2.91l-1.29.53c.15.22.27.41.41.59q2.94,4,5.9,7.95a2.23,2.23,0,0,1-.33,3.47c-.32.3-.65.6-1,.88a2.13,2.13,0,0,1-3.42-.34c-2.08-2.78-4.17-5.57-6.24-8.35-.16-.21-.3-.41-.42-.54a25.94,25.94,0,0,1-2.89.84A7,7,0,0,1,536,411c1.67-1.08,3.43-2,5.16-3,.13-.08.3-.18.42-.14.72.21,1.13-.3,1.59-.65a39,39,0,0,0,9.52-10.45,1.56,1.56,0,0,0,.17-1.6,3.72,3.72,0,0,1,6.61-3.33c1.19,1.92,2.27,3.9,3.4,5.85Zm.23,15.42-9.28-16.07a42.79,42.79,0,0,1-11,11.78c1.46,2.53,2.91,5,4.31,7.49.27.48.48.58,1,.36a41.47,41.47,0,0,1,9.5-2.86C559.76,414.14,561.58,414,563.48,413.74Zm-7.21-21.85a1.92,1.92,0,0,0-1.79,1.29,2.2,2.2,0,0,0,.33,1.92l7.46,12.9q2,3.38,3.91,6.75a1.93,1.93,0,1,0,3.35-1.87c-1.52-2.68-3.07-5.34-4.61-8l-6.8-11.78A2,2,0,0,0,556.27,391.89Zm-9.77,27-5.19-9c-1.46.85-2.88,1.62-4.23,2.48a5.15,5.15,0,0,0,4.92,9C543.52,420.69,545,419.78,546.5,418.9Zm-1.21,2.82c.14.19.25.37.38.54l5.45,7.29c1.11,1.5,1.1,1.47,2.49.21.4-.37.38-.62.07-1-2-2.63-3.93-5.28-5.9-7.93-.09-.12-.19-.22-.3-.36l-1.65.94C545.65,421.48,545.5,421.59,545.29,421.72ZM566.53,404a2.29,2.29,0,0,0,.71-3.11,2.24,2.24,0,0,0-3-.86Z"></path><path class="cls-10" d="M544.43,445.4c-2.14.22-4.21.49-6.26.63-1.3.09-2.61,0-3.91,0a2.09,2.09,0,0,0-1.12.32c-3.49,2.39-7,4.84-10.45,7.25a1.84,1.84,0,0,1-.93.36c-.6,0-.9-.6-.73-1.33q.91-4,1.84-7.92c.12-.51.42-1.11.26-1.49s-.82-.57-1.26-.82a16.85,16.85,0,0,1-7.07-7.09c-2.22-4.59-1.49-8.87,1.62-12.78a21,21,0,0,1,10.41-6.71c1-.32,2-.56,2.95-.79.74-.18,1.22.08,1.34.65s-.24,1-1,1.13a24.6,24.6,0,0,0-8.84,3.69,13.17,13.17,0,0,0-5.37,6.52c-1.27,3.63-.36,6.88,2,9.79a17.72,17.72,0,0,0,6.18,4.7c1.19.57,1.23.67.93,2-.56,2.45-1.13,4.89-1.73,7.46.28-.18.45-.28.62-.4,2.87-2,5.74-4,8.6-6a2.09,2.09,0,0,1,1.45-.38,31.52,31.52,0,0,0,10.47-.76v-2.23a2.06,2.06,0,0,1,2.2-2.2c2.15,0,4.3,0,6.45,0a1.76,1.76,0,0,0,1.09-.42,11.41,11.41,0,0,0,4.14-7.3,9.09,9.09,0,0,0-1.75-6.57,36.74,36.74,0,0,0-3.12-3.38c-.1-.11-.24-.18-.35-.3a.91.91,0,0,1-.13-1.28.84.84,0,0,1,1.17-.2l.05,0c6.33,4.69,8.25,12.24,2.92,18.62l-.66.77c.32,0,.52,0,.73,0,1.31,0,2.61,0,3.91,0a2.06,2.06,0,0,1,2.11,2v.1q0,5.42,0,10.82a2.08,2.08,0,0,1-2.07,2.11H546.62a2.08,2.08,0,0,1-2.17-2v-.17C544.42,449.63,544.43,447.48,544.43,445.4Zm9.36,6.74h6.84c.56,0,.76-.15.75-.74q0-5,0-10c0-.55-.18-.71-.71-.71q-6.88,0-13.75,0c-.5,0-.68.15-.68.67,0,3.35,0,6.69,0,10,0,.54.15.72.7.71Z"></path><path class="cls-11" d="M529.78,408.82a9.5,9.5,0,0,1-1-.55,1.25,1.25,0,0,0-2.13.89,1.55,1.55,0,0,1-1.63,1.51c-.57,0-1.13,0-1.7,0a1.54,1.54,0,0,1-1.65-1.49,1.24,1.24,0,0,0-2.15-.9,1.52,1.52,0,0,1-2.22-.12c-.43-.41-.85-.82-1.25-1.25a1.51,1.51,0,0,1-.11-2.12c.8-1.1.42-2-.92-2.2a1.53,1.53,0,0,1-1.41-1.53q0-1,0-1.95a1.49,1.49,0,0,1,1.37-1.49c1.4-.22,1.76-1.08.93-2.23a1.51,1.51,0,0,1,.12-2.08c.41-.44.85-.87,1.29-1.29a1.53,1.53,0,0,1,2.17-.12c1.06.78,2,.39,2.18-.9a1.52,1.52,0,0,1,1.62-1.44H525a1.54,1.54,0,0,1,1.59,1.47,1.23,1.23,0,0,0,2.14.9,1.53,1.53,0,0,1,2.22.12c.43.4.84.81,1.24,1.24a1.5,1.5,0,0,1,.14,2.11h0c-.81,1.11-.43,2,.91,2.21a1.51,1.51,0,0,1,1.41,1.52,16,16,0,0,1,0,2,1.53,1.53,0,0,1-1.43,1.49c-1.3.17-1.69,1.11-.91,2.17a1.51,1.51,0,0,1-.08,2.12,14,14,0,0,1-1.34,1.33A6.56,6.56,0,0,1,529.78,408.82Zm-12.3-14.39a3.17,3.17,0,0,1-2.09,5.07v1.3a3.11,3.11,0,0,1,2.09,5l.91,1,.54-.33A3,3,0,0,1,523,407.6a2.14,2.14,0,0,1,.23.54c.19.6.46.8,1,.71.16,0,.33,0,.49,0,.92-2.69,2.52-3.36,5-2.13l1-.87c-1.33-2.41-.66-4.05,2.09-5.07a4.1,4.1,0,0,1,0-.5c.08-.54-.05-.83-.68-1a2.71,2.71,0,0,1-2-2.63,11.71,11.71,0,0,1,.45-2.29l-.77-.83a3.15,3.15,0,0,1-5-2.08h-1.32a3.1,3.1,0,0,1-4.94,2.1Z"></path><path class="cls-12" d="M578,424.75a32.77,32.77,0,0,1-1,3.66,18.62,18.62,0,0,1-5.92,8.48,6.17,6.17,0,0,1-5.82,1.43,7.45,7.45,0,0,1-1.64-.77,2.28,2.28,0,0,1-.83-3.1v0c.42-.79.87-1.56,1.33-2.31a2.32,2.32,0,0,1,3.17-.85h0a5.45,5.45,0,0,1,.57.32.65.65,0,0,0,1-.18A18.26,18.26,0,0,0,572,426a.65.65,0,0,0-.32-.92,7.51,7.51,0,0,1-.68-.39,2.31,2.31,0,0,1-.8-3.09c.42-.78.87-1.55,1.33-2.31a2.32,2.32,0,0,1,3.16-.89l.06,0C577,419.6,578,421.52,578,424.75Zm-1.84-.41c0-2.19-.67-3.47-2.08-4.25-.37-.2-.7-.26-.95.17-.4.69-.81,1.38-1.19,2.09a.56.56,0,0,0,.1.78.55.55,0,0,0,.15.08l.51.3a2.35,2.35,0,0,1,1.11,3.06,21.58,21.58,0,0,1-3.15,5.67c-1.26,1.66-2.61,1.71-3.93.78-.07,0-.16-.13-.23-.12-.26.06-.64.07-.76.24a17.51,17.51,0,0,0-1.24,2.14.8.8,0,0,0,.21.75,3.56,3.56,0,0,0,2.77.66,6.71,6.71,0,0,0,3.26-1.8,16.89,16.89,0,0,0,3.28-4.2,15.55,15.55,0,0,0,2.14-6.35Z"></path><path class="cls-13" d="M537,432.63h10.44a3.29,3.29,0,0,1,.77.06.74.74,0,0,1,.64.83.29.29,0,0,1,0,.09,1.72,1.72,0,0,1-.71.8c-.16.11-.46,0-.7,0h-21c-1,0-1.45-.3-1.44-.92s.46-.89,1.46-.89Z"></path><path class="cls-14" d="M533.85,427.69h-7.49c-.24,0-.54.06-.7-.05a1.75,1.75,0,0,1-.7-.8.75.75,0,0,1,.59-.89h.06a3.5,3.5,0,0,1,.72-.06H541.7c.76,0,1.2.36,1.17.93s-.42.9-1.2.9Z"></path><path class="cls-15" d="M569.72,390.33a7.68,7.68,0,0,1-.32.79c-.63,1.12-1.27,2.22-1.92,3.33-.35.6-.86.79-1.34.54a1,1,0,0,1-.26-1.42c.67-1.17,1.31-2.35,2-3.47a1.27,1.27,0,0,1,1-.46C569.23,389.67,569.47,390.09,569.72,390.33Z"></path><path class="cls-16" d="M574.9,405.78c-.69,0-1.39,0-2.08,0a.9.9,0,1,1-.07-1.79h.07c1.4,0,2.79,0,4.18,0a.9.9,0,1,1,0,1.79C576.29,405.79,575.6,405.78,574.9,405.78Z"></path><path class="cls-17" d="M571.81,399.12c-.16-.15-.56-.35-.62-.62a1.22,1.22,0,0,1,.28-1c1.2-.77,2.44-1.48,3.69-2.15a.81.81,0,0,1,1.1.3l0,.06a.79.79,0,0,1-.17,1.11c-1.27.78-2.57,1.49-3.86,2.24A1.76,1.76,0,0,1,571.81,399.12Z"></path><path class="cls-18" d="M550.3,446.44v-2.87c0-.89.67-1.3,1.46-.86q2.52,1.41,5,2.9a.88.88,0,0,1,0,1.65c-1.67,1-3.37,2-5.07,2.93-.74.41-1.39,0-1.41-.89S550.3,447.4,550.3,446.44Zm1.85,1.41,2.44-1.41L552.15,445Z"></path><path class="cls-19" d="M529.62,400.14a5.54,5.54,0,1,1,0-.06Zm-1.82,0a3.72,3.72,0,1,0-3.73,3.7,3.72,3.72,0,0,0,3.73-3.7Z"></path><path class="cls-20" d="M114.83,456.56a1.67,1.67,0,0,1-1.11-1.76c0-2.62,0-5.25,0-7.88,0-.91.39-1.46,1.08-1.61a1.41,1.41,0,0,1,1.73,1.49c0,1.37,0,2.73,0,4.1v.78c.23-.21.37-.32.5-.45,1.72-1.72,3.45-3.42,5.15-5.16a2.53,2.53,0,0,1,2-.82h41.22a5.34,5.34,0,0,0,1.44-.15,2.84,2.84,0,0,0,2-3c0-2.61,0-5.21,0-7.82q0-15.44,0-30.88a5.23,5.23,0,0,0-.16-1.43,2.8,2.8,0,0,0-3-2h-6.17a5.76,5.76,0,0,1-.59,0,1.4,1.4,0,0,1-1.41-1.38,1.35,1.35,0,0,1,1.37-1.4c2.5,0,5-.13,7.49,0a5.53,5.53,0,0,1,5.26,5.8c0,1.72,0,3.45,0,5.17v33.86a5.47,5.47,0,0,1-3.24,5.39,7,7,0,0,1-2.87.58q-20.25.06-40.49,0a2,2,0,0,0-1.55.66c-2.27,2.31-4.58,4.6-6.88,6.89-.36.35-.78.63-1.17.95Z"></path><path class="cls-21" d="M103.82,402.22a6.21,6.21,0,0,1,2-3.68,5.66,5.66,0,0,1,3.65-1.35c2.3,0,4.59,0,6.89,0a1.39,1.39,0,0,1,1.51,1.1,1.31,1.31,0,0,1-.78,1.57,2.89,2.89,0,0,1-1,.14h-6.23a2.93,2.93,0,0,0-3.27,3.28V442c0,2,.84,3,2.84,3.31,1,.16,1.48.74,1.37,1.59a1.46,1.46,0,0,1-1.76,1.2,5.6,5.6,0,0,1-5.16-4.7,2.83,2.83,0,0,0-.11-.31Z"></path><path class="cls-22" d="M157.53,409.9A5.81,5.81,0,0,1,162,412a4.86,4.86,0,0,1,1.15,2.69,13.33,13.33,0,0,1-.25,5.52,5.36,5.36,0,0,1-4.63,3.72l-.54.09c-.24,1.42-.39,2.78-.71,4.1a15.47,15.47,0,0,1-12.36,11.18,32.38,32.38,0,0,1-3.82.24,1.39,1.39,0,0,1-1.59-1.32c-.14-.7-.39-1.28-1.16-1.44a1.36,1.36,0,0,0-1.62,1,1.34,1.34,0,0,0,.93,1.66c.21.07.43.09.64.14a1.35,1.35,0,0,1,1.14,1.53,1.37,1.37,0,0,1-1.47,1.23,4.22,4.22,0,1,1,3.88-6.11c.15.3.26.5.67.48a12.59,12.59,0,0,0,11.36-7.49,12.11,12.11,0,0,0,1.15-5.46q0-3.31,0-6.63a1.43,1.43,0,0,1,1.19-1.58,1.36,1.36,0,0,1,1.61,1.41c0,1.19,0,2.38,0,3.57,0,.18,0,.35,0,.52a2.49,2.49,0,0,0,2.7-2.11,20.77,20.77,0,0,0,0-4,2.7,2.7,0,0,0-2.79-2.25c-.42,0-.84,0-1.26,0a1.42,1.42,0,0,1-1.49-1.51c0-.88,0-1.77,0-2.65a17,17,0,0,0-30.95-9.63,16.66,16.66,0,0,0-3,9.79V422.1c0,1.46-.48,1.92-1.94,2a6.06,6.06,0,0,1-5.37-2.26,5,5,0,0,1-1.13-3.12,20.74,20.74,0,0,1,.26-4.67,5.17,5.17,0,0,1,4.64-4l.58-.1.14-.06a19.7,19.7,0,0,1,7.31-16.65,18.88,18.88,0,0,1,12.79-4.45,19.19,19.19,0,0,1,14.25,6.42A19.76,19.76,0,0,1,157.53,409.9Zm-39.59,2.9a2.58,2.58,0,0,0-2.69,2.15,20.6,20.6,0,0,0,0,4.08,2.44,2.44,0,0,0,2.69,2.06Z"></path><path class="cls-23" d="M137.76,394.34a14.21,14.21,0,0,1,14.13,13.94,1.42,1.42,0,1,1-2.82.25,25.61,25.61,0,0,0-.74-3.94,11.24,11.24,0,0,0-11.44-7.37,11.37,11.37,0,0,0-10.23,9.09c-.15.82-.17,1.67-.29,2.49a1.24,1.24,0,0,1-1.19,1.07,1.26,1.26,0,0,1-1.36-.72,2.09,2.09,0,0,1-.19-.89,14.11,14.11,0,0,1,12.16-13.74C136.44,394.43,137.11,394.4,137.76,394.34Z"></path><path class="cls-24" d="M136.37,428.23v-2.78c.85,0,1.66,0,2.46,0,.12,0,.24.22.35.35s0,.09,0,.13c0,.76-.07,1.52-.1,2.28Z"></path><path class="cls-25" d="M130.74,425.48h2.73v2.78h-2.73Z"></path><path class="cls-26" d="M144.82,425.49v2.75h-2.77v-2.75Z"></path><path class="cls-27" d="M362.69,307.86l5-28.11-1.08-.57.62.36-26-6Z"></path><path class="cls-28" d="M385,308.38c-2.32-2.17-4.7-4.34-7-6.57l.31,5.74.05.88-7.19-8.89-.05,0,7.34,24.91.21.26Z"></path><path class="cls-29" d="M341.19,299v21.6l.05.11.05,0-.1.05v-.21c1.91-1.13,20.46-12.09,21.39-12.81Z"></path><path class="cls-30" d="M371.11,299.54l-3.51-19.43-4.91,27.65,8.37-8.12Z"></path><path class="cls-27" d="M374,291l-.16-.2v.05l-2.74,8.78,7.19,8.89-.06-.88Z"></path><path class="cls-31" d="M377.93,301.87c-.05-2.18-.1-4.35-.15-6.46L374,291l4.29,16.59Z"></path><path class="cls-32" d="M373.85,290.81c-2.07-3.72-4.13-7.39-6.15-11.06l-.05.36,3.51,19.43v0Z"></path><path class="cls-33" d="M367.24,279.49l-17.11-9-8.89,3Z"></path><path class="cls-34" d="M341.19,273.5V299l21.39,8.79h.06l-.06.05v.1l.06-.1Z"></path><path class="cls-35" d="M360.57,342.79l.83-.21a3.92,3.92,0,0,1-.42-.15l-.05-.05Zm25.22-7.49,0-.21v-.41l-7.44-10.13L361,342.43h0Z"></path><path class="cls-36" d="M378.4,324.55l7.44,10.18L385,308.38l-6.41,16.43Z"></path><path class="cls-28" d="M360.93,342.43l17.16-17.57-15.5-16.95v-.05Z"></path><path class="cls-36" d="M362.59,307.91l15.5,16.95.26-.31L371,299.64l-8.42,8.17-.06.05Z"></path><path class="cls-35" d="M341.19,320.62l.05.11,19.48,21.6-.15.31.15.15.21-.15,1.65-34.83C361.81,308.43,343.1,319.49,341.19,320.62Z"></path><path class="cls-28" d="M350.75,350.08l9.72-7.29-.16.26.36-.72-19.48-21.6Z"></path><path class="cls-28" d="M341.19,320.67v36.54l9.56-7.18Zm0,36.59v.31l.72-.31Z"></path><path class="cls-37" d="M383.26,357.16c.05-2.33.2-4.71.41-7.08l-17.11,9.66Z"></path><path class="cls-38" d="M383.67,349.92c-3.21-1.08-19.43-6.46-22.69-7.49l5.48,17.26h.1L383.67,350Z"></path><path class="cls-39" d="M341.19,357.21v.05l11.94-.41,7.34-14.11Z"></path><path class="cls-38" d="M383.67,349.92a143.85,143.85,0,0,1,2.12-14.62L361,342.38l-.05.05.05.05C364.24,343.46,380.47,348.89,383.67,349.92Z"></path><path class="cls-39" d="M353.13,356.9l-1.5,13.64,14.83-10.75.16-.05-13.49-2.94Zm-1.55,13.69.88.16-.78-.16h-.1Z"></path><path class="cls-40" d="M367.44,373.74l15.81-16.48v-.1l-16.84,2.63,1.24,13.7Z"></path><path class="cls-38" d="M347.81,380.93,360.67,382l-9-11.42h-.05Z"></path><path class="cls-41" d="M367.24,374l.15-.15.31-.36c-.41-4.55-.83-9.2-1.24-13.7l-14.83,10.75h.1Z"></path><path class="cls-42" d="M341.61,371.42l10-.83,1.5-13.64Z"></path><path class="cls-38" d="M341.19,357.26v14.16l.36-.05,11.58-14.52v-.05Z"></path><path class="cls-39" d="M341.19,371.47v.1c2.12,3.11,4.24,6.21,6.31,9.31h.31l3.82-10.34h-.05Z"></path><path class="cls-42" d="M360.67,382l6.51-8-15.5-3.46Z"></path><path class="cls-37" d="M360.88,342.07l-7.75,14.78,13.33,2.89Z"></path><path class="cls-43" d="M326.72,269.93A3.06,3.06,0,0,1,327,276v11.06l-.21.15-8.47,7.44.31,24.6a3.05,3.05,0,0,1-.21,6.1,3.07,3.07,0,0,1-.87-6l-.31-25v-.25l.2-.16,8.48-7.34V276a3.08,3.08,0,0,1-2.17-3A3,3,0,0,1,326.72,269.93Zm-13.9,14.31.11,8v.37l-.31.15-4.81,2.58v11.11a3.1,3.1,0,1,1-1.14,0V294.68l.31-.15,4.81-2.64-.1-7.7a3.11,3.11,0,1,1,3.77-3.05A3.07,3.07,0,0,1,312.82,284.24Zm24.6-5-.16,15v.31l-.25.15-2.54,1.71a3.11,3.11,0,1,1-2.94-2.07,3,3,0,0,1,2.32,1.09l2.23-1.5.15-14.62a3.09,3.09,0,1,1,3.57-3A3,3,0,0,1,337.42,279.28Zm-38.6,32.09.05,12.82,22.22,9.46a3.15,3.15,0,0,1,2.53-1.3,3.1,3.1,0,1,1-3.1,3.1,3.49,3.49,0,0,1,.11-.77L298,325.12l-.36-.16v-.36l-.05-13.18a3.11,3.11,0,1,1,3.51-3.1A3,3,0,0,1,298.82,311.37Zm32.81,45.43a3.13,3.13,0,0,1,2.12.82l5.17-5.11L339,315.2l-8.68-5.38a3,3,0,0,1-2.33,1.09,3.1,3.1,0,1,1,3.1-3.1,3.42,3.42,0,0,1-.15,1l8.94,5.58.26.16v.31l-.05,37.87V353l-.16.16-5.48,5.37a2.79,2.79,0,0,1,.31,1.29,3.1,3.1,0,1,1-6.2,0A3,3,0,0,1,331.63,356.8Zm-2.37-36.23,5.52,8.73.11.31-.16,10.18a3.16,3.16,0,0,1,2.07,2.95,3.1,3.1,0,1,1-3.26-3.1l.16-9.87-5.37-8.48a3.1,3.1,0,1,1,.93-.72ZM320.68,347v19.74l-.16.36-4,5a3,3,0,0,1,1.14,2.43,3.15,3.15,0,1,1-3.15-3.15,3,3,0,0,1,.93.15l4-5V347a3.1,3.1,0,0,1-2.48-3.05,3.15,3.15,0,1,1,3.67,3.1Zm5.73,29.14a2.88,2.88,0,0,1,1.86.62l5-4.13a3.28,3.28,0,0,1-.37-1.45,3.17,3.17,0,0,1,3.16-3.15,3.15,3.15,0,1,1,0,6.3,3.32,3.32,0,0,1-2.07-.77l-5,4.08a3,3,0,0,1,.46,1.66,3.16,3.16,0,0,1-3.15,3.15,3.13,3.13,0,0,1-3.15-3.15A3.21,3.21,0,0,1,326.41,376.17Zm-13.12-27.54a3.13,3.13,0,0,1,.67,6.2v6.36l-.16.36-4.44,5a3.09,3.09,0,0,1,.83,2.12,3.16,3.16,0,1,1-3.15-3.15,3,3,0,0,1,1.39.31l4.34-4.86v-6.15a3.16,3.16,0,0,1-2.63-3.1A3.12,3.12,0,0,1,313.29,348.63Zm-9.92-2.79a3.17,3.17,0,0,1,3.15,3.15A3.12,3.12,0,0,1,304,352l-.11,6a3.12,3.12,0,0,1,2.69,3.1,3.15,3.15,0,1,1-6.3,0,3.12,3.12,0,0,1,2.37-3.05l.11-6.05a3.16,3.16,0,0,1-2.64-3.1A3.21,3.21,0,0,1,303.37,345.84Zm-7-11.57a3.12,3.12,0,0,1,3.1,2.73l4.19.11a3.11,3.11,0,0,1,3.05-2.33,3.16,3.16,0,0,1,0,6.31,3.1,3.1,0,0,1-3.11-2.79l-4.18-.11a3.15,3.15,0,0,1-6.2-.77A3.12,3.12,0,0,1,296.39,334.27Z"></path><path class="cls-43" d="M296.87,391c5.15,0,6,5.79,2.26,7.3,4.68,1.05,4.1,7.84-1.58,7.84-3.11,0-6-.1-9.09-.1V391C291.29,391,294,391,296.87,391Zm-5,2.59h4.38a1.82,1.82,0,1,1,0,3.63h-4.38Zm0,6.26H297a1.82,1.82,0,1,1,0,3.63h-5.15Zm16.09-3.89a5.82,5.82,0,0,1,4.14-1.57c0,1.11,0,2,0,3.14-2.68-.64-4.1,1.24-4.1,3.7v4.91h-3.11V394.54h3.11Zm5.65-.34c.4.77.83,1.54,1.23,2.28,1.79-1.11,4.32-1.72,5.73,0,.37.43.31.71.34,1.24l-2.68.09c-1.6.06-3,.12-3.95,1.08-2.43,2.28-.27,5.39,2.35,5.76a5,5,0,0,0,4.41-1.29l0,1.11h3.17l-.09-6.48c0-3.23-1.57-5-4.9-5.21A8.53,8.53,0,0,0,313.59,395.59ZM321,401l0,1.35a2.88,2.88,0,0,1-3.06,1.48c-1.42-.21-2.19-1.91-.74-2.65a2.89,2.89,0,0,1,1.36-.21H321Zm6.26-6.45h3.27v11.53h-3.27Zm1.64-5.55a1.89,1.89,0,1,1,0,3.76,1.89,1.89,0,1,1,0-3.76Zm5,5.55h3.27v1.11a5.05,5.05,0,0,1,1.33-.92,4.85,4.85,0,0,1,5.58.49,5.08,5.08,0,0,1,1.6,4v6.84h-3.24c0-1.94,0-3.88,0-5.79,0-4.23-5.24-4.38-5.24.15v5.68h-3.27Zm12.86-.09c1.7,3.95,3.42,7.86,5.12,11.81-.86,1.73-2.1,2.07-3.76.74-.47.83-.9,1.66-1.36,2.5,2.81,1.57,6.38,1.38,7.8-1.88,1.91-4.38,3.79-8.76,5.71-13.17l-3.33,0c-1.11,2.65-2.25,5.3-3.36,8-1.08-2.69-2.13-5.37-3.21-8.05C349.11,394.39,347.9,394.42,346.7,394.45Z"></path><path class="cls-44" d="M368.33,405.32h-4.82V389.7h5a7.67,7.67,0,0,1,3.89.94,6.14,6.14,0,0,1,2.48,2.68,10.53,10.53,0,0,1,0,8.36,6.18,6.18,0,0,1-2.53,2.7A8.18,8.18,0,0,1,368.33,405.32Zm-2.93-1.68h2.81a6.25,6.25,0,0,0,3.21-.75,4.59,4.59,0,0,0,1.89-2.12,8.89,8.89,0,0,0,0-6.55,4.61,4.61,0,0,0-1.84-2.1,5.88,5.88,0,0,0-3.06-.74h-3Zm14.2-13.94,4,6.5h.12l4-6.5H390l-4.91,7.81,4.91,7.81h-2.23l-4-6.38h-.12l-4,6.38h-2.22l5-7.81-5-7.81Z"></path></g></g></svg>